<svg width="237" height="33" viewBox="0 0 237 33" fill="none" xmlns="http://www.w3.org/2000/svg">
<path d="M2.21484 28.207L2.27344 30.1602C2.27344 30.4987 2.18229 30.7591 2 30.9414C1.81771 31.1237 1.59635 31.2148 1.33594 31.2148C1.08854 31.2148 0.880208 31.1302 0.710938 30.9609C0.541667 30.7917 0.457031 30.6094 0.457031 30.4141C0.457031 30.2057 0.470052 30.0169 0.496094 29.8477C0.535156 29.6654 0.567708 29.4635 0.59375 29.2422C0.658854 28.8646 0.691406 27.9206 0.691406 26.4102V2.11328L21.9219 18.9492V7.30859C21.9219 6.42318 21.8958 5.79167 21.8438 5.41406C21.7786 4.80208 21.7461 4.3724 21.7461 4.125C21.7461 3.47396 22.026 3.14844 22.5859 3.14844C22.8073 3.14844 23.0156 3.22656 23.2109 3.38281C23.4193 3.53906 23.5234 3.76693 23.5234 4.06641V4.75L23.4453 7.58203V32.0742L2.21484 15.4141V28.207ZM43.4453 29.7109C41.7786 30.8177 39.9297 31.3711 37.8984 31.3711C35.2031 31.3711 33.0417 30.694 31.4141 29.3398C29.7214 27.9466 28.875 26.013 28.875 23.5391C28.875 21.3516 29.7148 19.5547 31.3945 18.1484C33.1133 16.7292 35.3724 16.0195 38.1719 16.0195C40.0469 16.0195 41.8047 16.3776 43.4453 17.0938V11.7227C42.2604 11.3841 41.2122 11.2148 40.3008 11.2148C39.4023 11.2148 38.6406 11.2539 38.0156 11.332C37.3906 11.4102 36.7982 11.5273 36.2383 11.6836C35.0273 12.0221 34.1094 12.4779 33.4844 13.0508C33.1198 13.3893 32.7878 13.5586 32.4883 13.5586C32.1888 13.5586 31.9609 13.487 31.8047 13.3438C31.6484 13.1875 31.5703 13.0182 31.5703 12.8359C31.5703 12.6536 31.6029 12.4909 31.668 12.3477C31.7331 12.1914 31.8568 12.0352 32.0391 11.8789C32.4297 11.5404 33.0807 11.2018 33.9922 10.8633C35.8802 10.1471 37.7747 9.78906 39.6758 9.78906C45.457 9.78906 49.1484 11.1693 50.75 13.9297C51.4531 15.1536 51.8047 16.7617 51.8047 18.7539V31H43.4453V29.7109ZM43.4453 18.6172C41.8047 17.8229 40.1706 17.4258 38.543 17.4258C38.2826 17.4258 38.0352 17.4453 37.8008 17.4844V29.9062C37.8659 29.9193 37.9375 29.9258 38.0156 29.9258C38.0938 29.9258 38.1719 29.9258 38.25 29.9258C40.0339 29.9258 41.7656 29.2943 43.4453 28.0312V18.6172ZM89.3047 26.3711C89.8385 26.3711 90.1055 26.6706 90.1055 27.2695C90.1055 27.7643 89.7279 28.2591 88.9727 28.7539C87.5664 29.6784 86.3815 30.2839 85.418 30.5703C83.6081 31.1042 81.707 31.3711 79.7148 31.3711C77.7227 31.3711 75.8021 31.0195 73.9531 30.3164C72.1172 29.6003 70.5482 28.6042 69.2461 27.3281C66.5247 24.6458 65.1641 21.1823 65.1641 16.9375C65.1641 14.8932 65.5482 13.0182 66.3164 11.3125C67.0846 9.59375 68.1458 8.1224 69.5 6.89844C72.3646 4.30729 75.9648 3.01172 80.3008 3.01172C82.7357 3.01172 84.8776 3.42839 86.7266 4.26172C88.6927 5.13411 89.6758 5.8763 89.6758 6.48828C89.6758 6.73568 89.5911 6.95052 89.4219 7.13281C89.2656 7.3151 89.0833 7.40625 88.875 7.40625C88.4583 7.40625 88.0807 7.22396 87.7422 6.85938C87.4036 6.48177 86.9414 6.14323 86.3555 5.84375C85.7826 5.54427 85.151 5.28385 84.4609 5.0625C83.0547 4.63281 81.7721 4.41797 80.6133 4.41797C79.4674 4.41797 78.5169 4.49609 77.7617 4.65234V29.6914C78.6732 29.8477 79.4805 29.9258 80.1836 29.9258C80.8867 29.9258 81.6029 29.8802 82.332 29.7891C83.0612 29.6979 83.7773 29.5482 84.4805 29.3398C86.056 28.8711 87.2409 28.181 88.0352 27.2695C88.3216 26.931 88.5495 26.6966 88.7188 26.5664C88.888 26.4362 89.0833 26.3711 89.3047 26.3711ZM93.0742 20.4531C93.0742 18.8906 93.3542 17.4714 93.9141 16.1953C94.487 14.9062 95.2682 13.7865 96.2578 12.8359C98.3932 10.8047 101.076 9.78906 104.305 9.78906C107.599 9.78906 110.281 10.8438 112.352 12.9531C114.331 14.9453 115.32 17.4648 115.32 20.5117C115.32 23.5716 114.305 26.1302 112.273 28.1875C110.177 30.3099 107.495 31.3711 104.227 31.3711C101.036 31.3711 98.3932 30.362 96.2969 28.3438C94.1484 26.2604 93.0742 23.6302 93.0742 20.4531ZM103.68 29.9062C103.784 29.9193 103.888 29.9258 103.992 29.9258H104.266C106.896 29.9258 109.103 29.112 110.887 27.4844C112.788 25.7266 113.738 23.4219 113.738 20.5703C113.738 17.7839 112.846 15.5247 111.062 13.793C109.305 12.0742 107.033 11.2148 104.246 11.2148H103.953C103.862 11.2148 103.771 11.2214 103.68 11.2344V29.9062ZM136.863 29.3203C137.566 29.3203 137.918 29.5807 137.918 30.1016C137.918 30.3359 137.768 30.5443 137.469 30.7266C137.169 30.9089 136.661 31 135.945 31H117.762L129.324 11.5664H123.445C122.586 11.5664 121.928 11.6055 121.473 11.6836C120.861 11.7878 120.424 11.8398 120.164 11.8398C119.904 11.8398 119.682 11.7682 119.5 11.625C119.331 11.4688 119.246 11.2799 119.246 11.0586C119.246 10.4466 119.891 10.1406 121.18 10.1406H138.094L127.273 29.5742H133.699C134.65 29.5742 135.327 29.5352 135.73 29.457C136.212 29.3659 136.59 29.3203 136.863 29.3203ZM146.395 6.72266C145.053 6.72266 144.005 6.42318 143.25 5.82422C142.495 5.22526 142.117 4.4375 142.117 3.46094C142.117 2.64062 142.534 1.9375 143.367 1.35156C144.253 0.726562 145.19 0.414062 146.18 0.414062C147.169 0.414062 147.931 0.511719 148.465 0.707031C149.012 0.902344 149.474 1.15625 149.852 1.46875C150.607 2.10677 150.984 2.84896 150.984 3.69531C150.984 4.54167 150.555 5.25781 149.695 5.84375C148.836 6.42969 147.736 6.72266 146.395 6.72266ZM142.293 10.1406H150.691V31H142.293V10.1406ZM171.551 12.2695C171.225 12.0612 170.874 11.957 170.496 11.957C170.118 11.957 169.728 12.0482 169.324 12.2305C168.921 12.3997 168.497 12.6406 168.055 12.9531C167.13 13.6172 166.277 14.5026 165.496 15.6094V31H157.098V10.1406H165.496V13.4805C167.723 11.0195 170.242 9.78906 173.055 9.78906C177.651 9.78906 179.949 12.0156 179.949 16.4688V31H171.551V12.2695ZM202.312 9.78906C206.896 9.78906 209.188 12.0156 209.188 16.4688V31H200.789V11.9961C200.555 11.8398 200.242 11.7617 199.852 11.7617C199.474 11.7617 199.077 11.8529 198.66 12.0352C198.243 12.2174 197.807 12.4714 197.352 12.7969C196.375 13.513 195.509 14.4115 194.754 15.4922V31H186.355V3.36328H194.754V13.4414C196.98 11.0065 199.5 9.78906 202.312 9.78906ZM228.641 29.7109C226.974 30.8177 225.125 31.3711 223.094 31.3711C220.398 31.3711 218.237 30.694 216.609 29.3398C214.917 27.9466 214.07 26.013 214.07 23.5391C214.07 21.3516 214.91 19.5547 216.59 18.1484C218.309 16.7292 220.568 16.0195 223.367 16.0195C225.242 16.0195 227 16.3776 228.641 17.0938V11.7227C227.456 11.3841 226.408 11.2148 225.496 11.2148C224.598 11.2148 223.836 11.2539 223.211 11.332C222.586 11.4102 221.993 11.5273 221.434 11.6836C220.223 12.0221 219.305 12.4779 218.68 13.0508C218.315 13.3893 217.983 13.5586 217.684 13.5586C217.384 13.5586 217.156 13.487 217 13.3438C216.844 13.1875 216.766 13.0182 216.766 12.8359C216.766 12.6536 216.798 12.4909 216.863 12.3477C216.928 12.1914 217.052 12.0352 217.234 11.8789C217.625 11.5404 218.276 11.2018 219.188 10.8633C221.076 10.1471 222.97 9.78906 224.871 9.78906C230.652 9.78906 234.344 11.1693 235.945 13.9297C236.648 15.1536 237 16.7617 237 18.7539V31H228.641V29.7109ZM228.641 18.6172C227 17.8229 225.366 17.4258 223.738 17.4258C223.478 17.4258 223.23 17.4453 222.996 17.4844V29.9062C223.061 29.9193 223.133 29.9258 223.211 29.9258C223.289 29.9258 223.367 29.9258 223.445 29.9258C225.229 29.9258 226.961 29.2943 228.641 28.0312V18.6172Z" fill="white"/>
</svg>
